<?xml version="1.0" standalone="no"?>
<!DOCTYPE svg PUBLIC "-//W3C//DTD SVG 20010904//EN"
 "http://www.w3.org/TR/2001/REC-SVG-20010904/DTD/svg10.dtd">
<svg version="1.0" xmlns="http://www.w3.org/2000/svg"
 width="700.000000pt" height="700.000000pt" viewBox="0 0 700.000000 700.000000"
 preserveAspectRatio="xMidYMid meet">
<metadata>
Created by potrace 1.14, written by Peter Selinger 2001-2017
</metadata>
<g transform="translate(0.000000,700.000000) scale(0.100000,-0.100000)"
fill="#000000" stroke="none">
<path d="M1815 6984 c-332 -42 -664 -171 -936 -363 -281 -199 -496 -449 -657
-764 -33 -64 -58 -117 -56 -117 2 0 -2 -13 -11 -30 -48 -92 -125 -391 -142
-550 -4 -41 -8 -795 -8 -1675 0 -1735 -2 -1665 56 -1905 44 -180 150 -444 219
-550 109 -165 141 -211 184 -264 281 -342 665 -589 1079 -696 277 -71 212 -69
1997 -66 883 1 1614 4 1625 7 11 4 43 9 70 13 240 32 514 129 745 263 260 150
521 402 692 668 161 249 260 519 307 835 18 119 19 205 17 1750 -2 1609 -2
1626 -23 1730 -77 379 -193 643 -406 924 -71 94 -256 285 -325 336 -26 19 -53
41 -61 48 -29 27 -210 142 -291 185 -157 81 -388 165 -535 193 -22 4 -49 9
-60 11 -153 30 -233 31 -1795 31 -1286 0 -1595 -3 -1685 -14z"/>
</g>
</svg>
