<svg xmlns="http://www.w3.org/2000/svg" viewBox="0 0 314.67 314.67"><defs><style>.cls-1{fill:#48c6e2;}.cls-2{fill:#fff;}</style></defs><g id="Layer_2" data-name="Layer 2"><g id="Layer_1-2" data-name="Layer 1"><rect class="cls-1" width="314.67" height="314.67" rx="93.33"/><path class="cls-2" d="M175.2,111V86.9a7,7,0,0,0-7-7H79.32a7,7,0,0,0-7,7V111a7,7,0,0,0,7,7H168.2A7,7,0,0,0,175.2,111Z"/><path class="cls-2" d="M192.47,118h36.2a7,7,0,0,0,7-7V86.9a7,7,0,0,0-7-7H216.59a7,7,0,0,0-5,2l-24.12,24.11A7,7,0,0,0,192.47,118Z"/><path class="cls-2" d="M139.82,255.8h28.35a7,7,0,0,0,7-7V135.32a7,7,0,0,0-11.95-4.95l-28.35,28.34a7,7,0,0,0-2.05,4.95V248.8A7,7,0,0,0,139.82,255.8Z"/></g></g></svg>